<svg width="22" height="21" viewBox="0 0 22 21" fill="none" xmlns="http://www.w3.org/2000/svg">
<g id="Group 35">
<g id="Group">
<path id="Vector" d="M14.2861 2.3403C11.1564 -0.789379 6.06262 -0.789379 2.93294 2.3403C-0.19607 5.47067 -0.19607 10.5638 2.93294 13.6941C5.72 16.4805 10.0607 16.779 13.1884 14.6033C13.2542 14.9147 13.4048 15.2118 13.647 15.454L18.2048 20.0119C18.869 20.6747 19.9423 20.6747 20.6031 20.0119C21.2667 19.3483 21.2667 18.275 20.6031 17.6135L16.0453 13.0544C15.8045 12.8142 15.5066 12.6629 15.1952 12.5971C17.3724 9.46876 17.0738 5.12873 14.2861 2.3403ZM12.8471 12.2552C10.5105 14.5917 6.70782 14.5917 4.37192 12.2552C2.0367 9.91858 2.0367 6.11655 4.37192 3.77997C6.70782 1.44407 10.5105 1.44407 12.8471 3.77997C15.1837 6.11655 15.1837 9.91858 12.8471 12.2552Z" fill="#0C0B0B"/>
</g>
</g>
</svg>
